<!DOCTYPE svg PUBLIC "-//W3C//DTD SVG 1.1//EN" "http://www.w3.org/Graphics/SVG/1.1/DTD/svg11.dtd">
<!-- Uploaded to: SVG Repo, www.svgrepo.com, Transformed by: SVG Repo Mixer Tools -->
<svg width="800px" height="800px" viewBox="-4.8 -4.8 57.60 57.60" fill="none" xmlns="http://www.w3.org/2000/svg" stroke="#000000">
<g id="SVGRepo_bgCarrier" stroke-width="0">
<path transform="translate(-4.8, -4.8), scale(3.5999999999999996)" fill="#7ed0ec" d="M9.166.33a2.25 2.25 0 00-2.332 0l-5.25 3.182A2.25 2.25 0 00.5 5.436v5.128a2.25 2.25 0 001.084 1.924l5.25 3.182a2.25 2.25 0 002.332 0l5.25-3.182a2.25 2.25 0 001.084-1.924V5.436a2.25 2.25 0 00-1.084-1.924L9.166.33z" strokewidth="0"/>
</g>
<g id="SVGRepo_tracerCarrier" stroke-linecap="round" stroke-linejoin="round"/>
<g id="SVGRepo_iconCarrier"> <path d="M21.37 36C22.82 30.75 27.89 27 33.73 27.62C39.29 28.21 43.71 32.9 43.99 38.48C44.06 39.95 43.86 41.36 43.43 42.67C43.17 43.47 42.39 44 41.54 44H11.7584C6.71004 44 2.92371 39.3814 3.91377 34.4311L9.99994 4H21.9999L25.9999 11L17.43 17.13L14.9999 14" stroke="#000000" stroke-width="4" stroke-miterlimit="2" stroke-linecap="round" stroke-linejoin="round"/> <path d="M17.4399 17.13L22 34" stroke="#000000" stroke-width="4" stroke-miterlimit="2" stroke-linecap="round" stroke-linejoin="round"/> </g>
</svg>